<svg width="1032" height="1032" viewBox="0 0 1032 1032" fill="none" xmlns="http://www.w3.org/2000/svg">
<circle cx="516" cy="516" r="516" fill="url(#paint0_linear_6_2)"/>
<path d="M172.75 410H204.25V520.25L136 467.45V515H104.5V404.75L172.75 457.55V410ZM248.003 515V488.75H300.953V515H248.003ZM248.003 436.25V410H300.953V436.25H248.003ZM248.003 473.75V448.25H297.953V473.75H248.003ZM225.203 410H256.703V515H225.203V410ZM349.368 462.5C349.368 467.6 350.318 472.1 352.218 476C354.118 479.9 356.818 482.95 360.318 485.15C363.818 487.25 368.018 488.3 372.918 488.3C377.818 488.3 382.018 487.25 385.518 485.15C389.018 482.95 391.718 479.9 393.618 476C395.518 472.1 396.468 467.6 396.468 462.5C396.468 457.3 395.568 452.8 393.768 449C391.968 445.1 389.318 442.1 385.818 440C382.418 437.8 378.118 436.7 372.918 436.7C368.018 436.7 363.818 437.8 360.318 440C356.818 442.1 354.118 445.1 352.218 449C350.318 452.8 349.368 457.3 349.368 462.5ZM314.418 462.5C314.418 454.1 315.918 446.5 318.918 439.7C321.918 432.9 326.068 427.05 331.368 422.15C336.668 417.25 342.868 413.5 349.968 410.9C357.068 408.3 364.718 407 372.918 407C381.318 407 389.068 408.3 396.168 410.9C403.268 413.5 409.468 417.25 414.768 422.15C420.068 427.05 424.168 432.9 427.068 439.7C429.968 446.5 431.418 454.1 431.418 462.5C431.418 470.9 429.968 478.6 427.068 485.6C424.268 492.5 420.268 498.5 415.068 503.6C409.868 508.7 403.668 512.6 396.468 515.3C389.368 518.1 381.518 519.5 372.918 519.5C364.318 519.5 356.418 518.1 349.218 515.3C342.118 512.6 335.968 508.7 330.768 503.6C325.568 498.5 321.518 492.5 318.618 485.6C315.818 478.6 314.418 470.9 314.418 462.5ZM446.395 410H479.395V487.25H522.145V515H446.395V410ZM532.674 410H566.424V515H532.674V410ZM655.709 410H687.209V520.25L618.959 467.45V515H587.459V404.75L655.709 457.55V410ZM707.412 410H740.412V477.5C740.412 481.7 741.462 485.15 743.562 487.85C745.762 490.45 749.112 491.75 753.612 491.75C758.112 491.75 761.412 490.45 763.512 487.85C765.712 485.15 766.812 481.7 766.812 477.5V410H799.812V480.5C799.812 488 798.562 494.35 796.062 499.55C793.662 504.65 790.312 508.8 786.012 512C781.712 515.1 776.762 517.35 771.162 518.75C765.662 520.25 759.812 521 753.612 521C747.412 521 741.512 520.25 735.912 518.75C730.412 517.35 725.512 515.1 721.212 512C716.912 508.8 713.512 504.65 711.012 499.55C708.612 494.35 707.412 488 707.412 480.5V410ZM880.826 410H922.076L888.026 461.9L924.326 515H883.076L867.176 485.6L850.826 515H809.576L846.776 461.9L813.326 410H854.576L867.476 435.35L880.826 410Z" fill="url(#paint1_linear_6_2)"/>
<path d="M172.75 622L204.25 622L204.25 511.75L136 564.55L136 517L104.5 517L104.5 627.25L172.75 574.45L172.75 622ZM248.003 517L248.003 543.25L300.953 543.25L300.953 517L248.003 517ZM248.003 595.75L248.003 622L300.953 622L300.953 595.75L248.003 595.75ZM248.003 558.25L248.003 583.75L297.953 583.75L297.953 558.25L248.003 558.25ZM225.203 622L256.703 622L256.703 517L225.203 517L225.203 622ZM349.368 569.5C349.368 564.4 350.318 559.9 352.218 556C354.118 552.1 356.818 549.05 360.318 546.85C363.818 544.75 368.018 543.7 372.918 543.7C377.818 543.7 382.018 544.75 385.518 546.85C389.018 549.05 391.718 552.1 393.618 556C395.518 559.9 396.468 564.4 396.468 569.5C396.468 574.7 395.568 579.2 393.768 583C391.968 586.9 389.318 589.9 385.818 592C382.418 594.2 378.118 595.3 372.918 595.3C368.018 595.3 363.818 594.2 360.318 592C356.818 589.9 354.118 586.9 352.218 583C350.318 579.2 349.368 574.7 349.368 569.5ZM314.418 569.5C314.418 577.9 315.918 585.5 318.918 592.3C321.918 599.1 326.068 604.95 331.368 609.85C336.668 614.75 342.868 618.5 349.968 621.1C357.068 623.7 364.718 625 372.918 625C381.318 625 389.068 623.7 396.168 621.1C403.268 618.5 409.468 614.75 414.768 609.85C420.068 604.95 424.168 599.1 427.068 592.3C429.968 585.5 431.418 577.9 431.418 569.5C431.418 561.1 429.968 553.4 427.068 546.4C424.268 539.5 420.268 533.5 415.068 528.4C409.868 523.3 403.668 519.4 396.468 516.7C389.368 513.9 381.518 512.5 372.918 512.5C364.318 512.5 356.418 513.9 349.218 516.7C342.118 519.4 335.968 523.3 330.768 528.4C325.568 533.5 321.518 539.5 318.618 546.4C315.818 553.4 314.418 561.1 314.418 569.5ZM446.395 622L479.395 622L479.395 544.75L522.145 544.75L522.145 517L446.395 517L446.395 622ZM532.674 622L566.424 622L566.424 517L532.674 517L532.674 622ZM655.709 622L687.209 622L687.209 511.75L618.959 564.55L618.959 517L587.459 517L587.459 627.25L655.709 574.45L655.709 622ZM707.412 622L740.412 622L740.412 554.5C740.412 550.3 741.462 546.85 743.562 544.15C745.762 541.55 749.112 540.25 753.612 540.25C758.112 540.25 761.412 541.55 763.512 544.15C765.712 546.85 766.812 550.3 766.812 554.5L766.812 622L799.812 622L799.812 551.5C799.812 544 798.562 537.65 796.062 532.45C793.662 527.35 790.312 523.2 786.012 520C781.712 516.9 776.762 514.65 771.162 513.25C765.662 511.75 759.812 511 753.612 511C747.412 511 741.512 511.75 735.912 513.25C730.412 514.65 725.512 516.9 721.212 520C716.912 523.2 713.512 527.35 711.012 532.45C708.612 537.65 707.412 544 707.412 551.5L707.412 622ZM880.826 622L922.076 622L888.026 570.1L924.326 517L883.076 517L867.176 546.4L850.826 517L809.576 517L846.776 570.1L813.326 622L854.576 622L867.476 596.65L880.826 622Z" fill="url(#paint2_linear_6_2)" fill-opacity="0.1"/>
<defs>
<linearGradient id="paint0_linear_6_2" x1="516" y1="0" x2="516" y2="1032" gradientUnits="userSpaceOnUse">
<stop/>
<stop offset="0.5" stop-color="#333333"/>
<stop offset="1"/>
</linearGradient>
<linearGradient id="paint1_linear_6_2" x1="94" y1="442" x2="938" y2="442" gradientUnits="userSpaceOnUse">
<stop stop-color="white"/>
<stop offset="0.25" stop-color="#036D2B"/>
<stop offset="0.5" stop-color="#9900FF"/>
<stop offset="0.75" stop-color="#00447C"/>
<stop offset="1" stop-color="#999999"/>
</linearGradient>
<linearGradient id="paint2_linear_6_2" x1="937" y1="590" x2="94" y2="590" gradientUnits="userSpaceOnUse">
<stop stop-color="#999999"/>
<stop offset="0.25" stop-color="#00447C"/>
<stop offset="0.5" stop-color="#9900FF"/>
<stop offset="0.75" stop-color="#036D2B"/>
<stop offset="1" stop-color="white"/>
</linearGradient>
</defs>
</svg>
